<svg>
    <symbol width="24" height="24" viewBox="0 0 24 24" fill="none"
        xmlns="http://www.w3.org/2000/svg"
        id="icon-tel">
        <path
            d="M21.97 18.33C21.97 18.69 21.89 19.06 21.72 19.42C21.55 19.78 21.33 20.12 21.04 20.44C20.55 20.98 20.01 21.37 19.4 21.62C18.8 21.87 18.15 22 17.45 22C16.43 22 15.34 21.76 14.19 21.27C13.04 20.78 11.89 20.12 10.75 19.29C9.6 18.45 8.51 17.52 7.47 16.49C6.44 15.45 5.51 14.36 4.68 13.22C3.86 12.08 3.2 10.94 2.72 9.81C2.24 8.67 2 7.58 2 6.54C2 5.86 2.12 5.21 2.36 4.61C2.6 4 2.98 3.44 3.51 2.94C4.15 2.31 4.85 2 5.59 2C5.87 2 6.15 2.06 6.4 2.18C6.66 2.3 6.89 2.48 7.07 2.74L9.39 6.01C9.57 6.26 9.7 6.49 9.79 6.71C9.88 6.92 9.93 7.13 9.93 7.32C9.93 7.56 9.86 7.8 9.72 8.03C9.59 8.26 9.4 8.5 9.16 8.74L8.4 9.53C8.29 9.64 8.24 9.77 8.24 9.93C8.24 10.01 8.25 10.08 8.27 10.16C8.3 10.24 8.33 10.3 8.35 10.36C8.53 10.69 8.84 11.12 9.28 11.64C9.73 12.16 10.21 12.69 10.73 13.22C11.27 13.75 11.79 14.24 12.32 14.69C12.84 15.13 13.27 15.43 13.61 15.61C13.66 15.63 13.72 15.66 13.79 15.69C13.87 15.72 13.95 15.73 14.04 15.73C14.21 15.73 14.34 15.67 14.45 15.56L15.21 14.81C15.46 14.56 15.7 14.37 15.93 14.25C16.16 14.11 16.39 14.04 16.64 14.04C16.83 14.04 17.03 14.08 17.25 14.17C17.47 14.26 17.7 14.39 17.95 14.56L21.26 16.91C21.52 17.09 21.7 17.3 21.81 17.55C21.91 17.8 21.97 18.05 21.97 18.33Z"
            stroke="#D3B47F" stroke-width="1.5" stroke-miterlimit="10" />
        <path d="M18.5 9C18.5 8.4 18.03 7.48 17.33 6.73C16.69 6.04 15.84 5.5 15 5.5"
            stroke="#D3B47F" stroke-width="1.5" stroke-linecap="round" stroke-linejoin="round" />
        <path d="M22 9C22 5.13 18.87 2 15 2" stroke="#D3B47F" stroke-width="1.5"
            stroke-linecap="round" stroke-linejoin="round" />
    </symbol>
    <symbol width="83" height="58" viewBox="0 0 83 58" fill="none"
        xmlns="http://www.w3.org/2000/svg" id="icon-quote">
        <path
            d="M20.1336 58C16.7095 58 13.6279 57.3937 10.8886 56.1812C8.28626 54.8339 6.2317 53.0151 4.7251 50.7247C3.35546 48.7038 2.19127 46.144 1.23252 43.0453C0.410737 39.8119 0 36.3763 0 32.7387C0 26.0023 1.71201 19.7375 5.13611 13.9443C8.69718 8.01627 14.1758 3.36818 21.5718 0L23.4207 3.63763C19.7227 5.25436 16.4355 7.67945 13.5593 10.9129C10.6831 14.0116 8.83413 17.3124 8.01234 20.8153C7.05359 24.1835 6.91668 27.417 7.6015 30.5157C10.8886 26.878 15.4083 25.0592 21.1608 25.0592C26.2285 25.0592 30.3374 26.4739 33.4876 29.3031C36.6377 32.1324 38.2128 36.1742 38.2128 41.4286C38.2128 46.4135 36.5008 50.4553 33.0767 53.554C29.7896 56.518 25.4752 58 20.1336 58ZM64.9208 58C61.4967 58 58.415 57.3937 55.6757 56.1812C53.0734 54.8339 51.019 53.0151 49.5124 50.7247C48.1428 48.7038 46.9786 46.144 46.0199 43.0453C45.1981 39.8119 44.7872 36.3763 44.7872 32.7387C44.7872 26.0023 46.4992 19.7375 49.9233 13.9443C53.4843 8.01627 58.9629 3.36818 66.359 0L68.208 3.63763C64.51 5.25436 61.2229 7.67945 58.3466 10.9129C55.4704 14.0116 53.6213 17.3124 52.7995 20.8153C51.8408 24.1835 51.7038 27.417 52.3887 30.5157C55.6758 26.878 60.1956 25.0592 65.9481 25.0592C71.0158 25.0592 75.1246 26.4739 78.2747 29.3031C81.4249 32.1324 83 36.1742 83 41.4286C83 46.4135 81.288 50.4553 77.8639 53.554C74.5768 56.518 70.2624 58 64.9208 58Z"
            fill="#D3B47F" />
    </symbol>
    <symbol width="70" height="70" viewBox="0 0 70 70" fill="none"
        xmlns="http://www.w3.org/2000/svg" id="arrow-prev">
        <path
            d="M43.8958 11.9L24.8791 30.9166C22.6333 33.1625 22.6333 36.8375 24.8791 39.0833L43.8958 58.1"
            stroke="currentColor" stroke-width="2" stroke-miterlimit="10" stroke-linecap="round"
            stroke-linejoin="round" />
    </symbol>
    <symbol width="70" height="70" viewBox="0 0 70 70" fill="none"
        xmlns="http://www.w3.org/2000/svg" id="arrow-next">
        <path
            d="M26.1042 11.9L45.1209 30.9166C47.3667 33.1625 47.3667 36.8375 45.1209 39.0833L26.1042 58.1"
            stroke="currentColor" stroke-width="2" stroke-miterlimit="10" stroke-linecap="round"
            stroke-linejoin="round" />
    </symbol>
    <symbol width="24" height="24" viewBox="0 0 24 24" fill="none"
        xmlns="http://www.w3.org/2000/svg" id="contact-calling">
        <path
            d="M21.97 18.33C21.97 18.69 21.89 19.06 21.72 19.42C21.55 19.78 21.33 20.12 21.04 20.44C20.55 20.98 20.01 21.37 19.4 21.62C18.8 21.87 18.15 22 17.45 22C16.43 22 15.34 21.76 14.19 21.27C13.04 20.78 11.89 20.12 10.75 19.29C9.6 18.45 8.51 17.52 7.47 16.49C6.44 15.45 5.51 14.36 4.68 13.22C3.86 12.08 3.2 10.94 2.72 9.81C2.24 8.67 2 7.58 2 6.54C2 5.86 2.12 5.21 2.36 4.61C2.6 4 2.98 3.44 3.51 2.94C4.15 2.31 4.85 2 5.59 2C5.87 2 6.15 2.06 6.4 2.18C6.66 2.3 6.89 2.48 7.07 2.74L9.39 6.01C9.57 6.26 9.7 6.49 9.79 6.71C9.88 6.92 9.93 7.13 9.93 7.32C9.93 7.56 9.86 7.8 9.72 8.03C9.59 8.26 9.4 8.5 9.16 8.74L8.4 9.53C8.29 9.64 8.24 9.77 8.24 9.93C8.24 10.01 8.25 10.08 8.27 10.16C8.3 10.24 8.33 10.3 8.35 10.36C8.53 10.69 8.84 11.12 9.28 11.64C9.73 12.16 10.21 12.69 10.73 13.22C11.27 13.75 11.79 14.24 12.32 14.69C12.84 15.13 13.27 15.43 13.61 15.61C13.66 15.63 13.72 15.66 13.79 15.69C13.87 15.72 13.95 15.73 14.04 15.73C14.21 15.73 14.34 15.67 14.45 15.56L15.21 14.81C15.46 14.56 15.7 14.37 15.93 14.25C16.16 14.11 16.39 14.04 16.64 14.04C16.83 14.04 17.03 14.08 17.25 14.17C17.47 14.26 17.7 14.39 17.95 14.56L21.26 16.91C21.52 17.09 21.7 17.3 21.81 17.55C21.91 17.8 21.97 18.05 21.97 18.33Z"
            stroke="white" stroke-width="1.5" stroke-miterlimit="10" />
        <path d="M18.5 9C18.5 8.4 18.03 7.48 17.33 6.73C16.69 6.04 15.84 5.5 15 5.5" stroke="white"
            stroke-width="1.5" stroke-linecap="round" stroke-linejoin="round" />
        <path d="M22 9C22 5.13 18.87 2 15 2" stroke="white" stroke-width="1.5"
            stroke-linecap="round" stroke-linejoin="round" />
    </symbol>
    <symbol width="24" height="24" viewBox="0 0 24 24" fill="none"
        xmlns="http://www.w3.org/2000/svg" id="contact-sms">
        <path
            d="M17 20.5H7C4 20.5 2 19 2 15.5V8.5C2 5 4 3.5 7 3.5H17C20 3.5 22 5 22 8.5V15.5C22 19 20 20.5 17 20.5Z"
            stroke="white" stroke-width="1.5" stroke-miterlimit="10" stroke-linecap="round"
            stroke-linejoin="round" />
        <path d="M17 9L13.87 11.5C12.84 12.32 11.15 12.32 10.12 11.5L7 9" stroke="white"
            stroke-width="1.5" stroke-miterlimit="10" stroke-linecap="round" stroke-linejoin="round" />
    </symbol>
    <symbol width="24" height="24" viewBox="0 0 24 24" fill="none"
        xmlns="http://www.w3.org/2000/svg" id="contact-clock">
        <path
            d="M22 12C22 17.52 17.52 22 12 22C6.48 22 2 17.52 2 12C2 6.48 6.48 2 12 2C17.52 2 22 6.48 22 12Z"
            stroke="white" stroke-width="1.5" stroke-linecap="round" stroke-linejoin="round" />
        <path d="M15.71 15.18L12.61 13.33C12.07 13.01 11.63 12.24 11.63 11.61V7.51001"
            stroke="white" stroke-width="1.5" stroke-linecap="round" stroke-linejoin="round" />
    </symbol>
    <symbol width="24" height="24" viewBox="0 0 24 24" fill="none"
        xmlns="http://www.w3.org/2000/svg" id="contact-map">
        <path
            d="M22 9.00002V15C22 17.5 21.5 19.25 20.38 20.38L14 14L21.73 6.27002C21.91 7.06002 22 7.96002 22 9.00002Z"
            stroke="white" stroke-width="1.5" stroke-linecap="round" stroke-linejoin="round" />
        <path
            d="M21.73 6.27L6.26999 21.73C3.25999 21.04 2 18.96 2 15V9C2 4 4 2 9 2H15C18.96 2 21.04 3.26 21.73 6.27Z"
            stroke="white" stroke-width="1.5" stroke-linecap="round" stroke-linejoin="round" />
        <path
            d="M20.38 20.38C19.25 21.5 17.5 22 15 22H9.00003C7.96003 22 7.06002 21.91 6.27002 21.73L14 14L20.38 20.38Z"
            stroke="white" stroke-width="1.5" stroke-linecap="round" stroke-linejoin="round" />
        <path
            d="M6.24002 7.97997C6.92002 5.04997 11.32 5.04997 12 7.97997C12.39 9.69997 11.31 11.16 10.36 12.06C9.67001 12.72 8.58003 12.72 7.88003 12.06C6.93003 11.16 5.84002 9.69997 6.24002 7.97997Z"
            stroke="white" stroke-width="1.5" />
        <path d="M9.0946 8.69995H9.10359" stroke="white" stroke-width="2" stroke-linecap="round"
            stroke-linejoin="round" />
    </symbol>
</svg>